<svg width="11" height="10" viewBox="0 0 11 10" fill="none" xmlns="http://www.w3.org/2000/svg">
<path d="M8.71331 1.21248C8.88824 1.03907 9.1244 0.941479 9.37072 0.940799C9.61704 0.94012 9.85373 1.03641 10.0296 1.20885C10.2055 1.38129 10.3065 1.61603 10.3107 1.86232C10.3149 2.10861 10.222 2.34665 10.0521 2.52498L5.06206 8.76249C4.9763 8.85486 4.87279 8.92899 4.75772 8.98044C4.64266 9.0319 4.5184 9.05962 4.39237 9.06196C4.26635 9.06429 4.14115 9.04119 4.02425 8.99403C3.90736 8.94687 3.80118 8.87662 3.71206 8.78748L0.405807 5.47998C0.313699 5.39416 0.239821 5.29066 0.188581 5.17566C0.137341 5.06066 0.109789 4.93652 0.107568 4.81064C0.105347 4.68476 0.128503 4.55972 0.175654 4.44299C0.222805 4.32625 0.292986 4.22021 0.38201 4.13119C0.471033 4.04216 0.577075 3.97198 0.69381 3.92483C0.810546 3.87768 0.935582 3.85452 1.06146 3.85674C1.18734 3.85897 1.31148 3.88652 1.42648 3.93776C1.54148 3.989 1.64498 4.06288 1.73081 4.15498L4.34831 6.77123L8.68956 1.23998C8.6973 1.2303 8.7044 1.22111 8.71331 1.21248Z" fill="#068021"/>
</svg>
